<?xml version="1.0" encoding="UTF-8" standalone="no"?>
<!-- Created with Inkscape (http://www.inkscape.org/) -->

<svg
   xmlns:dc="http://purl.org/dc/elements/1.1/"
   xmlns:cc="http://creativecommons.org/ns#"
   xmlns:rdf="http://www.w3.org/1999/02/22-rdf-syntax-ns#"
   xmlns:svg="http://www.w3.org/2000/svg"
   xmlns="http://www.w3.org/2000/svg"
   xmlns:sodipodi="http://sodipodi.sourceforge.net/DTD/sodipodi-0.dtd"
   xmlns:inkscape="http://www.inkscape.org/namespaces/inkscape"
   id="svg5218"
   version="1.1"
   inkscape:version="0.91 r13725"
   xml:space="preserve"
   width="510"
   height="662.5"
   viewBox="0 0 510 662.5"
   sodipodi:docname="base-classes.svg"><metadata
     id="metadata5224"><rdf:RDF><cc:Work
         rdf:about=""><dc:format>image/svg+xml</dc:format><dc:type
           rdf:resource="http://purl.org/dc/dcmitype/StillImage" /><dc:title></dc:title></cc:Work></rdf:RDF></metadata><defs
     id="defs5222" /><sodipodi:namedview
     pagecolor="#ffffff"
     bordercolor="#666666"
     borderopacity="1"
     objecttolerance="10"
     gridtolerance="10"
     guidetolerance="10"
     inkscape:pageopacity="0"
     inkscape:pageshadow="2"
     inkscape:window-width="640"
     inkscape:window-height="480"
     id="namedview5220"
     showgrid="false"
     inkscape:zoom="0.71245283"
     inkscape:cx="328.68179"
     inkscape:cy="321.44534"
     inkscape:window-x="454"
     inkscape:window-y="112"
     inkscape:window-maximized="0"
     inkscape:current-layer="g5226" /><g
     id="g5226"
     inkscape:groupmode="layer"
     inkscape:label="base-classes"
     transform="matrix(1.25,0,0,-1.25,0,662.5)"><g
       id="g5228"><path
         d="M 0,0 408,0 408,530 0,530 0,0 Z"
         style="fill:#ffffff;fill-opacity:1;fill-rule:nonzero;stroke:none"
         id="path5230"
         inkscape:connector-curvature="0" /><path
         d="m 78.758,514.762 c -30.36,0 -54.957,-12.723 -54.957,-28.442 0,-15.718 24.597,-28.437 54.957,-28.437 30.242,0 54.84,12.719 54.84,28.437 0,15.719 -24.598,28.442 -54.84,28.442"
         style="fill:none;stroke:#010101;stroke-width:1.99999201;stroke-linecap:round;stroke-linejoin:round;stroke-miterlimit:10;stroke-dasharray:none;stroke-opacity:1"
         id="path5232"
         inkscape:connector-curvature="0" /><text
         transform="matrix(1,0,0,-1,69.039101,488.72101)"
         style="font-variant:normal;font-weight:bold;font-size:15.96000004px;font-family:Courier;-inkscape-font-specification:Courier-Bold;writing-mode:lr-tb;fill:#000000;fill-opacity:1;fill-rule:nonzero;stroke:none"
         id="text5234"><tspan
           x="0 9.5760002"
           y="0"
           sodipodi:role="line"
           id="tspan5236">Eq</tspan></text>
<text
         transform="matrix(1,0,0,-1,33.639099,472.4007)"
         style="font-variant:normal;font-weight:normal;font-size:12px;font-family:'DejaVu Sans';-inkscape-font-specification:DejaVuSans;writing-mode:lr-tb;fill:#000000;fill-opacity:1;fill-rule:nonzero;stroke:none"
         id="text5238"><tspan
           x="0 8.6400003 11.964 18.264 23.544001 29.615999 34.848 40.127998 46.200001 49.560001 52.632 56.472 65.064003 68.064003 71.015999 74.975998 79.008003 85.68"
           y="0"
           sodipodi:role="line"
           id="tspan5240">Allexcept IO, (-&gt;)</tspan></text>
<path
         d="m 81.398,442.84 c -31.8,0 -57.597,-13.078 -57.597,-29.039 0,-16.078 25.797,-29.039 57.597,-29.039 31.801,0 57.602,12.961 57.602,29.039 0,15.961 -25.801,29.039 -57.602,29.039"
         style="fill:none;stroke:#010101;stroke-width:1.99999201;stroke-linecap:round;stroke-linejoin:round;stroke-miterlimit:10;stroke-dasharray:none;stroke-opacity:1"
         id="path5242"
         inkscape:connector-curvature="0" /><path
         d="m 211.719,442.602 c -31.918,0 -57.84,-12.961 -57.84,-28.922 0,-15.84 25.922,-28.797 57.84,-28.797 32.039,0 57.961,12.957 57.961,28.797 0,15.961 -25.922,28.922 -57.961,28.922"
         style="fill:none;stroke:#010101;stroke-width:1.99999201;stroke-linecap:round;stroke-linejoin:round;stroke-miterlimit:10;stroke-dasharray:none;stroke-opacity:1"
         id="path5244"
         inkscape:connector-curvature="0" /><text
         transform="matrix(1,0,0,-1,197.319,423.16101)"
         style="font-variant:normal;font-weight:bold;font-size:15.96000004px;font-family:Courier;-inkscape-font-specification:Courier-Bold;writing-mode:lr-tb;fill:#000000;fill-opacity:1;fill-rule:nonzero;stroke:none"
         id="text5246"><tspan
           x="0 9.5760002 19.199881"
           y="0"
           sodipodi:role="line"
           id="tspan5248">Num</tspan></text>
<text
         transform="matrix(1,0,0,-1,182.0788,406.961)"
         style="font-variant:normal;font-weight:normal;font-size:12px;font-family:'DejaVu Sans';-inkscape-font-specification:DejaVuSans;writing-mode:lr-tb;fill:#000000;fill-opacity:1;fill-rule:nonzero;stroke:none"
         id="text5250"><tspan
           x="0 3.7920001 9.7440004 13.104 16.056 19.247999 23.087999 29.040001 32.52 37.872002 43.751999 49.104 53.063999 56.015999"
           y="0"
           sodipodi:role="line"
           id="tspan5252">Int, Integer, </tspan><tspan
           x="-3.4796879 3.120312 6.4443121 12.384312 17.616312 20.976313 23.928312 26.928312 35.568314 41.520313 47.472313 53.424313 56.856312"
           y="14.399988"
           sodipodi:role="line"
           id="tspan5254">Float, Double</tspan></text>
<path
         d="m 209.918,513.32 c -27.957,0 -50.641,-12.121 -50.641,-27 0,-14.879 22.684,-27 50.641,-27 27.961,0 50.641,12.121 50.641,27 0,14.879 -22.68,27 -50.641,27"
         style="fill:none;stroke:#010101;stroke-width:1.99999201;stroke-linecap:round;stroke-linejoin:round;stroke-miterlimit:10;stroke-dasharray:none;stroke-opacity:1"
         id="path5256"
         inkscape:connector-curvature="0" /><text
         transform="matrix(1,0,0,-1,190.599,495.80099)"
         style="font-variant:normal;font-weight:bold;font-size:15.96000004px;font-family:Courier;-inkscape-font-specification:Courier-Bold;writing-mode:lr-tb;fill:#000000;fill-opacity:1;fill-rule:nonzero;stroke:none"
         id="text5258"><tspan
           x="0 9.5760002 19.199881 28.775881"
           y="0"
           sodipodi:role="line"
           id="tspan5260">Show</tspan></text>
<text
         transform="matrix(1,0,0,-1,184.95877,479.60101)"
         style="font-variant:normal;font-weight:normal;font-size:12px;font-family:'DejaVu Sans';-inkscape-font-specification:DejaVuSans;writing-mode:lr-tb;fill:#000000;fill-opacity:1;fill-rule:nonzero;stroke:none"
         id="text5262"><tspan
           x="0 8.6400003 11.964 15.288 18.216 23.496 29.568001 34.848 40.080002 46.200001"
           y="0"
           sodipodi:role="line"
           id="tspan5264">All except</tspan><tspan
           x="6.2402401 10.03224 18.672239 21.624241 24.696239 28.65624 32.568241 39.240238"
           y="14.400024"
           sodipodi:role="line"
           id="tspan5266">IO, (-&gt;)</tspan></text>
<path
         d="m 207.277,353.68 c -30.359,0 -54.957,-12.239 -54.957,-27.36 0,-15 24.598,-27.238 54.957,-27.238 30.481,0 55.082,12.238 55.082,27.238 0,15.121 -24.601,27.36 -55.082,27.36"
         style="fill:none;stroke:#010101;stroke-width:1.99999201;stroke-linecap:round;stroke-linejoin:round;stroke-miterlimit:10;stroke-dasharray:none;stroke-opacity:1"
         id="path5268"
         inkscape:connector-curvature="0" /><text
         transform="matrix(1,0,0,-1,188.07899,335.80099)"
         style="font-variant:normal;font-weight:bold;font-size:15.96000004px;font-family:Courier;-inkscape-font-specification:Courier-Bold;writing-mode:lr-tb;fill:#000000;fill-opacity:1;fill-rule:nonzero;stroke:none"
         id="text5270"><tspan
           x="0 9.5760002 19.199881 28.775881"
           y="0"
           sodipodi:role="line"
           id="tspan5272">Real</tspan></text>
<text
         transform="matrix(1,0,0,-1,177.5192,319.60101)"
         style="font-variant:normal;font-weight:normal;font-size:12px;font-family:'DejaVu Sans';-inkscape-font-specification:DejaVuSans;writing-mode:lr-tb;fill:#000000;fill-opacity:1;fill-rule:nonzero;stroke:none"
         id="text5274"><tspan
           x="0 3.7920001 9.7440004 13.104 16.056 19.247999 23.087999 29.040001 32.52 37.872002 43.751999 49.104 53.063999 56.015999"
           y="0"
           sodipodi:role="line"
           id="tspan5276">Int, Integer, </tspan><tspan
           x="-3.240216 3.3597839 6.683784 12.623784 17.855783 21.215784 24.167784 27.167784 35.807785 41.759785 47.711784 53.663784 57.095783"
           y="14.400024"
           sodipodi:role="line"
           id="tspan5278">Float, Double</tspan></text>
<path
         d="m 328,353.082 c -32.281,0 -58.441,-12 -58.441,-26.762 0,-14.758 26.16,-26.64 58.441,-26.64 32.277,0 58.438,11.882 58.438,26.64 0,14.762 -26.161,26.762 -58.438,26.762"
         style="fill:none;stroke:#010101;stroke-width:1.99999201;stroke-linecap:round;stroke-linejoin:round;stroke-miterlimit:10;stroke-dasharray:none;stroke-opacity:1"
         id="path5280"
         inkscape:connector-curvature="0" /><text
         transform="matrix(1,0,0,-1,281.479,335.12106)"
         style="font-variant:normal;font-weight:bold;font-size:15.96000004px;font-family:Courier;-inkscape-font-specification:Courier-Bold;writing-mode:lr-tb;fill:#000000;fill-opacity:1;fill-rule:nonzero;stroke:none"
         id="text5282"><tspan
           x="0 9.5760002 19.199881 28.775881 38.399761 47.975761 57.59964 67.319283 76.895279 86.519157"
           y="0"
           sodipodi:role="line"
           id="tspan5284">Fractional</tspan></text>
<text
         transform="matrix(1,0,0,-1,294.879,320.40076)"
         style="font-variant:normal;font-weight:normal;font-size:12px;font-family:'DejaVu Sans';-inkscape-font-specification:DejaVuSans;writing-mode:lr-tb;fill:#000000;fill-opacity:1;fill-rule:nonzero;stroke:none"
         id="text5286"><tspan
           x="0 6.5999999 9.9239998 15.864 21.096001 24.455999 27.408001 30.408001 39.048 45 50.952 56.903999 60.335999 67.716003"
           y="0"
           sodipodi:role="line"
           id="tspan5288">Float, Double,</tspan><tspan
           x="0 8.3760004 15.708 27.396 35.004002 38.220001 45.396"
           y="15"
           sodipodi:role="line"
           id="tspan5290">Complex</tspan></text>
<path
         d="m 79.961,363.039 c -35.762,0 -64.684,-16.437 -64.684,-36.598 0,-20.281 28.922,-36.601 64.684,-36.601 35.637,0 64.559,16.32 64.559,36.601 0,20.161 -28.922,36.598 -64.559,36.598"
         style="fill:none;stroke:#010101;stroke-width:1.99999201;stroke-linecap:round;stroke-linejoin:round;stroke-miterlimit:10;stroke-dasharray:none;stroke-opacity:1"
         id="path5292"
         inkscape:connector-curvature="0" /><text
         transform="matrix(1,0,0,-1,60.639099,343.121)"
         style="font-variant:normal;font-weight:bold;font-size:15.96000004px;font-family:Courier;-inkscape-font-specification:Courier-Bold;writing-mode:lr-tb;fill:#000000;fill-opacity:1;fill-rule:nonzero;stroke:none"
         id="text5294"><tspan
           x="0 9.5760002 19.199881 28.775881"
           y="0"
           sodipodi:role="line"
           id="tspan5296">Enum</tspan></text>
<text
         transform="matrix(1,0,0,-1,19.695351,326.80069)"
         style="font-variant:normal;font-weight:normal;font-size:12px;font-family:'DejaVu Sans';-inkscape-font-specification:DejaVuSans;writing-mode:lr-tb;fill:#000000;fill-opacity:1;fill-rule:nonzero;stroke:none"
         id="text5298"><tspan
           x="0 3.96 8.3520002 11.304 12.06 20.424 26.375999 34.332001 37.391998 40.391998 41.051998 49.476002 55.68 62.124001 66.648003 69.599998 69.744003 80.627998 83.255997 89.447998 96.059998 100.824 101.988 108.072 115.8"
           y="0"
           sodipodi:role="line"
           id="tspan5300">(), Bool, Char, Ordering,</tspan><tspan
           x="16.414007 18.166008 25.570007 29.374008 32.338009 35.662006 37.462009 44.866009 47.014008 52.258007 58.234009 64.822006 69.346008 72.298012 73.738007 82.090012 83.434006 89.506004 96.058006 99.862007"
           y="14.399988"
           sodipodi:role="line"
           id="tspan5302">Int, Integer, Float,</tspan><tspan
           x="39.486649 49.07465 54.89465 60.846649 68.982651 70.254646"
           y="28.799976"
           sodipodi:role="line"
           id="tspan5304">Double</tspan></text>
<path
         d="m 202.48,267.883 c -26.519,0 -48,-11.883 -48,-26.524 0,-14.519 21.481,-26.398 48,-26.398 26.52,0 47.879,11.879 47.879,26.398 0,14.641 -21.359,26.524 -47.879,26.524"
         style="fill:none;stroke:#010101;stroke-width:1.99999201;stroke-linecap:round;stroke-linejoin:round;stroke-miterlimit:10;stroke-dasharray:none;stroke-opacity:1"
         id="path5306"
         inkscape:connector-curvature="0" /><text
         transform="matrix(1,0,0,-1,164.07899,243.761)"
         style="font-variant:normal;font-weight:bold;font-size:15.96000004px;font-family:Courier;-inkscape-font-specification:Courier-Bold;writing-mode:lr-tb;fill:#000000;fill-opacity:1;fill-rule:nonzero;stroke:none"
         id="text5308"><tspan
           x="0 9.5760002 19.199881 28.775881 38.399761 47.975761 57.59964 67.319283"
           y="0"
           sodipodi:role="line"
           id="tspan5310">RealFrac</tspan></text>
<text
         transform="matrix(1,0,0,-1,169.35908,227.4411)"
         style="font-variant:normal;font-weight:normal;font-size:12px;font-family:'DejaVu Sans';-inkscape-font-specification:DejaVuSans;writing-mode:lr-tb;fill:#000000;fill-opacity:1;fill-rule:nonzero;stroke:none"
         id="text5312"><tspan
           x="0 6.5999999 9.9239998 15.864 21.096001 24.455999 27.408001 30.408001 39.048 45 50.952 56.903999 60.335999"
           y="0"
           sodipodi:role="line"
           id="tspan5314">Float, Double</tspan></text>
<path
         d="m 313.117,267.883 c -29.277,0 -53.039,-11.883 -53.039,-26.524 0,-14.519 23.762,-26.398 53.039,-26.398 29.281,0 53.043,11.879 53.043,26.398 0,14.641 -23.762,26.524 -53.043,26.524"
         style="fill:none;stroke:#010101;stroke-width:1.99999201;stroke-linecap:round;stroke-linejoin:round;stroke-miterlimit:10;stroke-dasharray:none;stroke-opacity:1"
         id="path5316"
         inkscape:connector-curvature="0" /><path
         d="m 92.32,263.082 c -26.043,0 -47.16,-11.883 -47.16,-26.52 0,-14.523 21.117,-26.402 47.16,-26.402 26.039,0 47.16,11.879 47.16,26.402 0,14.637 -21.121,26.52 -47.16,26.52"
         style="fill:none;stroke:#010101;stroke-width:1.99999201;stroke-linecap:round;stroke-linejoin:round;stroke-miterlimit:10;stroke-dasharray:none;stroke-opacity:1"
         id="path5318"
         inkscape:connector-curvature="0" /><text
         transform="matrix(1,0,0,-1,53.919102,238.961)"
         style="font-variant:normal;font-weight:bold;font-size:15.96000004px;font-family:Courier;-inkscape-font-specification:Courier-Bold;writing-mode:lr-tb;fill:#000000;fill-opacity:1;fill-rule:nonzero;stroke:none"
         id="text5320"><tspan
           x="0 9.5760002 19.199881 28.775881 38.399761 47.975761 57.59964 67.319283"
           y="0"
           sodipodi:role="line"
           id="tspan5322">Integral</tspan></text>
<text
         transform="matrix(1,0,0,-1,65.558899,222.6411)"
         style="font-variant:normal;font-weight:normal;font-size:12px;font-family:'DejaVu Sans';-inkscape-font-specification:DejaVuSans;writing-mode:lr-tb;fill:#000000;fill-opacity:1;fill-rule:nonzero;stroke:none"
         id="text5324"><tspan
           x="0 3.7920001 9.7440004 13.104 16.056 19.247999 23.087999 29.040001 32.52 37.872002 43.751999 49.104"
           y="0"
           sodipodi:role="line"
           id="tspan5326">Int, Integer</tspan></text>
<path
         d="m 243.16,192.68 c -30.601,0 -55.441,-10.68 -55.441,-24 0,-13.2 24.84,-24 55.441,-24 30.598,0 55.32,10.8 55.32,24 0,13.32 -24.722,24 -55.32,24"
         style="fill:none;stroke:#010101;stroke-width:1.99999201;stroke-linecap:round;stroke-linejoin:round;stroke-miterlimit:10;stroke-dasharray:none;stroke-opacity:1"
         id="path5328"
         inkscape:connector-curvature="0" /><text
         transform="matrix(1,0,0,-1,199.959,170.961)"
         style="font-variant:normal;font-weight:bold;font-size:15.96000004px;font-family:Courier;-inkscape-font-specification:Courier-Bold;writing-mode:lr-tb;fill:#000000;fill-opacity:1;fill-rule:nonzero;stroke:none"
         id="text5330"><tspan
           x="0 9.5760002 19.199881 28.775881 38.399761 47.975761 57.59964 67.319283 76.895279"
           y="0"
           sodipodi:role="line"
           id="tspan5332">RealFloat</tspan></text>
<text
         transform="matrix(1,0,0,-1,210.03909,154.6411)"
         style="font-variant:normal;font-weight:normal;font-size:12px;font-family:'DejaVu Sans';-inkscape-font-specification:DejaVuSans;writing-mode:lr-tb;fill:#000000;fill-opacity:1;fill-rule:nonzero;stroke:none"
         id="text5334"><tspan
           x="0 6.5999999 9.9239998 15.864 21.096001 24.455999 27.408001 30.408001 39.048 45 50.952 56.903999 60.335999"
           y="0"
           sodipodi:role="line"
           id="tspan5336">Float, Double</tspan></text>
<path
         d="m 324.879,514.883 c -22.801,0 -41.281,-12.723 -41.281,-28.442 0,-15.718 18.48,-28.558 41.281,-28.558 22.801,0 41.281,12.84 41.281,28.558 0,15.719 -18.48,28.442 -41.281,28.442"
         style="fill:none;stroke:#010101;stroke-width:1.99999201;stroke-linecap:round;stroke-linejoin:round;stroke-miterlimit:10;stroke-dasharray:none;stroke-opacity:1"
         id="path5338"
         inkscape:connector-curvature="0" /><text
         transform="matrix(1,0,0,-1,305.67899,495.92099)"
         style="font-variant:normal;font-weight:bold;font-size:15.96000004px;font-family:Courier;-inkscape-font-specification:Courier-Bold;writing-mode:lr-tb;fill:#000000;fill-opacity:1;fill-rule:nonzero;stroke:none"
         id="text5340"><tspan
           x="0 9.5760002 19.199881 28.775881"
           y="0"
           sodipodi:role="line"
           id="tspan5342">Read</tspan></text>
<text
         transform="matrix(1,0,0,-1,300.03915,479.72101)"
         style="font-variant:normal;font-weight:normal;font-size:12px;font-family:'DejaVu Sans';-inkscape-font-specification:DejaVuSans;writing-mode:lr-tb;fill:#000000;fill-opacity:1;fill-rule:nonzero;stroke:none"
         id="text5344"><tspan
           x="0 8.6400003 11.964 15.288 18.216 23.496 29.568001 34.848 40.080002 46.200001"
           y="0"
           sodipodi:role="line"
           id="tspan5346">All except</tspan><tspan
           x="6.1199398 9.9119396 18.551941 21.503941 24.575939 28.53594 32.447941 39.119942"
           y="14.399988"
           sodipodi:role="line"
           id="tspan5348">IO, (-&gt;)</tspan></text>
<path
         d="m 337.719,447.039 c -28.918,0 -52.442,-14.879 -52.442,-33.359 0,-18.36 23.524,-33.239 52.442,-33.239 29.039,0 52.558,14.879 52.558,33.239 0,18.48 -23.519,33.359 -52.558,33.359"
         style="fill:none;stroke:#010101;stroke-width:1.99999201;stroke-linecap:round;stroke-linejoin:round;stroke-miterlimit:10;stroke-dasharray:none;stroke-opacity:1"
         id="path5350"
         inkscape:connector-curvature="0" /><text
         transform="matrix(1,0,0,-1,304.11899,423.16101)"
         style="font-variant:normal;font-weight:bold;font-size:15.96000004px;font-family:Courier;-inkscape-font-specification:Courier-Bold;writing-mode:lr-tb;fill:#000000;fill-opacity:1;fill-rule:nonzero;stroke:none"
         id="text5352"><tspan
           x="0 9.5760002 19.199881 28.775881 38.399761 47.975761 57.59964"
           y="0"
           sodipodi:role="line"
           id="tspan5354">Bounded</tspan></text>
<text
         transform="matrix(1,0,0,-1,294.75885,406.961)"
         style="font-variant:normal;font-weight:normal;font-size:12px;font-family:'DejaVu Sans';-inkscape-font-specification:DejaVuSans;writing-mode:lr-tb;fill:#000000;fill-opacity:1;fill-rule:nonzero;stroke:none"
         id="text5356"><tspan
           x="0 3.7920001 9.7440004 13.104 16.056 19.007999 27.048 33.119999 38.400002 42.324001 45.312 48.383999 56.304001 62.256001 68.208 71.531998 74.472 77.472 81.503998"
           y="0"
           sodipodi:role="line"
           id="tspan5358">Int, Char, Bool, ()</tspan><tspan
           x="4.0800838 12.720084 16.680084 22.632084 27.912085 31.872084 35.196083 41.256084 47.088085 50.040085 53.112083 56.472084 62.472084 68.424088 71.748085 77.016083"
           y="14.399988"
           sodipodi:role="line"
           id="tspan5360">Ordering, tuples</tspan></text>
<path
         d="M 96.199,63.16 C 66.918,63.16 43.16,51.281 43.16,36.762 c 0,-14.641 23.758,-26.403 53.039,-26.403 29.399,0 53.16,11.762 53.16,26.403 0,14.519 -23.761,26.398 -53.16,26.398"
         style="fill:none;stroke:#010101;stroke-width:1.99999201;stroke-linecap:round;stroke-linejoin:round;stroke-miterlimit:10;stroke-dasharray:none;stroke-opacity:1"
         id="path5362"
         inkscape:connector-curvature="0" /><text
         transform="matrix(1,0,0,-1,72.199203,39.041401)"
         style="font-variant:normal;font-weight:bold;font-size:15.96000004px;font-family:Courier;-inkscape-font-specification:Courier-Bold;writing-mode:lr-tb;fill:#000000;fill-opacity:1;fill-rule:nonzero;stroke:none"
         id="text5364"><tspan
           x="0 9.5760002 19.199881 28.775881 38.399761"
           y="0"
           sodipodi:role="line"
           id="tspan5366">Monad</tspan></text>
<text
         transform="matrix(1,0,0,-1,63.319118,22.7215)"
         style="font-variant:normal;font-weight:normal;font-size:12px;font-family:'DejaVu Sans';-inkscape-font-specification:DejaVuSans;writing-mode:lr-tb;fill:#000000;fill-opacity:1;fill-rule:nonzero;stroke:none"
         id="text5368"><tspan
           x="0 3.7920001 12.432 15.384 18.336 22.416 26.496 29.448 32.400002 43.032001 48.431999 54.144001 60.216"
           y="0"
           sodipodi:role="line"
           id="tspan5370">IO, [], Maybe</tspan></text>
<path
         d="M 95.039,187.961 C 65.758,187.961 42,176.082 42,161.562 c 0,-14.519 23.758,-26.281 53.039,-26.281 29.281,0 53.039,11.762 53.039,26.281 0,14.52 -23.758,26.399 -53.039,26.399"
         style="fill:none;stroke:#010101;stroke-width:1.99999201;stroke-linecap:round;stroke-linejoin:round;stroke-miterlimit:10;stroke-dasharray:none;stroke-opacity:1"
         id="path5372"
         inkscape:connector-curvature="0" /><text
         transform="matrix(1,0,0,-1,61.319,163.9613)"
         style="font-variant:normal;font-weight:bold;font-size:15.96000004px;font-family:Courier;-inkscape-font-specification:Courier-Bold;writing-mode:lr-tb;fill:#000000;fill-opacity:1;fill-rule:nonzero;stroke:none"
         id="text5374"><tspan
           x="0 9.5760002 19.199881 28.775881 38.399761 47.975761 57.59964"
           y="0"
           sodipodi:role="line"
           id="tspan5376">Functor</tspan></text>
<text
         transform="matrix(1,0,0,-1,62.15884,147.6414)"
         style="font-variant:normal;font-weight:normal;font-size:12px;font-family:'DejaVu Sans';-inkscape-font-specification:DejaVuSans;writing-mode:lr-tb;fill:#000000;fill-opacity:1;fill-rule:nonzero;stroke:none"
         id="text5378"><tspan
           x="0 3.7920001 12.432 15.384 18.336 22.416 26.496 29.448 32.400002 43.032001 48.431999 54.144001 60.216"
           y="0"
           sodipodi:role="line"
           id="tspan5380">IO, [], Maybe</tspan></text>
<path
         d="m 70.238,529.039 c -36.961,0 -66.961,-30 -66.961,-66.957 L 3.277,74 c 0,-36.957 30,-66.957 66.961,-66.957 l 268.082,0 c 36.957,0 66.957,30 66.957,66.957 l 0,388.082 c 0,36.957 -30,66.957 -66.957,66.957 l -268.082,0"
         style="fill:none;stroke:#010101;stroke-width:1.99999201;stroke-linecap:round;stroke-linejoin:round;stroke-miterlimit:10;stroke-dasharray:none;stroke-opacity:1"
         id="path5382"
         inkscape:connector-curvature="0" /><path
         d="M 95.039,125.562 C 65.758,125.562 42,113.68 42,99.16 42,84.641 65.758,72.883 95.039,72.883 c 29.281,0 53.039,11.758 53.039,26.277 0,14.52 -23.758,26.402 -53.039,26.402"
         style="fill:none;stroke:#010101;stroke-width:1.99999201;stroke-linecap:round;stroke-linejoin:round;stroke-miterlimit:10;stroke-dasharray:none;stroke-opacity:1"
         id="path5384"
         inkscape:connector-curvature="0" /><text
         transform="matrix(1,0,0,-1,41.930599,101.5613)"
         style="font-variant:normal;font-weight:bold;font-size:15.96000004px;font-family:Courier;-inkscape-font-specification:Courier-Bold;writing-mode:lr-tb;fill:#000000;fill-opacity:1;fill-rule:nonzero;stroke:none"
         id="text5386"><tspan
           x="0 9.5760002 19.152 28.728001 38.304001 47.880001 57.456001 67.031998 76.56012 86.136124 95.71212"
           y="0"
           sodipodi:role="line"
           id="tspan5388">Applicative</tspan></text>
<text
         transform="matrix(1,0,0,-1,58.958916,85.241402)"
         style="font-variant:normal;font-weight:normal;font-size:12px;font-family:'DejaVu Sans';-inkscape-font-specification:DejaVuSans;writing-mode:lr-tb;fill:#000000;fill-opacity:1;fill-rule:nonzero;stroke:none"
         id="text5390"><tspan
           x="0 3.5280001 12.972 16.775999 20.507999 25.188 29.868 33.672001 37.476002 47.784 55.127998 62.220001 69.828003"
           y="0"
           sodipodi:role="line"
           id="tspan5392">IO, [], Maybe</tspan></text>
<path
         d="m 250.238,63.16 c -29.277,0 -53.039,-11.879 -53.039,-26.398 0,-14.52 23.762,-26.282 53.039,-26.282 29.282,0 53.039,11.762 53.039,26.282 0,14.519 -23.757,26.398 -53.039,26.398"
         style="fill:none;stroke:#010101;stroke-width:1.99999201;stroke-linecap:round;stroke-linejoin:round;stroke-miterlimit:10;stroke-dasharray:none;stroke-opacity:1"
         id="path5394"
         inkscape:connector-curvature="0" /><text
         transform="matrix(1,0,0,-1,197.1306,39.161301)"
         style="font-variant:normal;font-weight:bold;font-size:15.96000004px;font-family:Courier;-inkscape-font-specification:Courier-Bold;writing-mode:lr-tb;fill:#000000;fill-opacity:1;fill-rule:nonzero;stroke:none"
         id="text5396"><tspan
           x="0 9.5760002 19.152 28.728001 38.304001 47.880001 57.456001 67.031998 76.56012 86.136124 95.71212"
           y="0"
           sodipodi:role="line"
           id="tspan5398">Traversable</tspan></text>
<text
         transform="matrix(1,0,0,-1,237.43895,22.841398)"
         style="font-variant:normal;font-weight:normal;font-size:12px;font-family:'DejaVu Sans';-inkscape-font-specification:DejaVuSans;writing-mode:lr-tb;fill:#000000;fill-opacity:1;fill-rule:nonzero;stroke:none"
         id="text5400"><tspan
           x="0 4.0799999 8.1599998 11.112 14.064 24.695999 30.048 35.807999 41.880001"
           y="0"
           sodipodi:role="line"
           id="tspan5402">[], Maybe</tspan></text>
<path
         d="m 325.438,131.961 c -29.278,0 -53.04,-11.879 -53.04,-26.399 0,-14.519 23.762,-26.281 53.04,-26.281 29.281,0 53.042,11.762 53.042,26.281 0,14.52 -23.761,26.399 -53.042,26.399"
         style="fill:none;stroke:#010101;stroke-width:1.99999201;stroke-linecap:round;stroke-linejoin:round;stroke-miterlimit:10;stroke-dasharray:none;stroke-opacity:1"
         id="path5404"
         inkscape:connector-curvature="0" /><text
         transform="matrix(1,0,0,-1,285.8642,108.05141)"
         style="font-variant:normal;font-weight:bold;font-size:16.29941368px;font-family:Courier;-inkscape-font-specification:Courier-Bold;writing-mode:lr-tb;fill:#000000;fill-opacity:1;fill-rule:nonzero;stroke:none"
         id="text5406"><tspan
           x="0 9.7796488 19.559298 29.338945 39.118595 48.898243 58.677891 68.457542"
           y="0"
           sodipodi:role="line"
           id="tspan5408">Foldable</tspan></text>
<text
         transform="matrix(1,0,0,-1,312.36984,91.38443)"
         style="font-variant:normal;font-weight:normal;font-size:12.25519753px;font-family:'DejaVu Sans';-inkscape-font-specification:DejaVuSans;writing-mode:lr-tb;fill:#000000;fill-opacity:1;fill-rule:nonzero;stroke:none"
         id="text5410"><tspan
           x="0 4.1667671 8.3335342 11.348313 14.363092 25.221197 30.687016 36.569511 42.770641"
           y="0"
           sodipodi:role="line"
           id="tspan5412">[], Maybe</tspan></text>
<path
         d="m 81.836,456.816 3.34,-10.714"
         style="fill:none;stroke:#000000;stroke-width:1.60000002;stroke-linecap:butt;stroke-linejoin:miter;stroke-miterlimit:4;stroke-dasharray:none;stroke-opacity:1"
         id="path5414"
         inkscape:connector-curvature="0" /><path
         d="m 86.273,442.578 1.407,6.238 -6.11,-1.906 4.703,-4.332"
         style="fill:#000000;fill-opacity:1;fill-rule:evenodd;stroke:#000000;stroke-width:0.47619101;stroke-linecap:butt;stroke-linejoin:miter;stroke-miterlimit:4;stroke-dasharray:none;stroke-opacity:1"
         id="path5416"
         inkscape:connector-curvature="0" /><path
         d="M 204.93,214.008 224.957,194.25"
         style="fill:none;stroke:#000000;stroke-width:1.60000002;stroke-linecap:butt;stroke-linejoin:miter;stroke-miterlimit:4;stroke-dasharray:none;stroke-opacity:1"
         id="path5418"
         inkscape:connector-curvature="0" /><path
         d="m 227.586,191.656 -1.695,6.168 -4.496,-4.558 6.191,-1.61"
         style="fill:#000000;fill-opacity:1;fill-rule:evenodd;stroke:#000000;stroke-width:1.13895595;stroke-linecap:butt;stroke-linejoin:miter;stroke-miterlimit:4;stroke-dasharray:none;stroke-opacity:1"
         id="path5420"
         inkscape:connector-curvature="0" /><path
         d="m 209.203,384.848 -6.265,-27.45"
         style="fill:none;stroke:#000000;stroke-width:1.60000002;stroke-linecap:butt;stroke-linejoin:miter;stroke-miterlimit:4;stroke-dasharray:none;stroke-opacity:1"
         id="path5422"
         inkscape:connector-curvature="0" /><path
         d="m 202.117,353.797 4.352,4.687 -6.239,1.422 1.887,-6.109"
         style="fill:#000000;fill-opacity:1;fill-rule:evenodd;stroke:#000000;stroke-width:0.35606399;stroke-linecap:butt;stroke-linejoin:miter;stroke-miterlimit:4;stroke-dasharray:none;stroke-opacity:1"
         id="path5424"
         inkscape:connector-curvature="0" /><path
         d="m 224.496,386.602 106.5,-29.758"
         style="fill:none;stroke:#000000;stroke-width:1.60000002;stroke-linecap:butt;stroke-linejoin:miter;stroke-miterlimit:4;stroke-dasharray:none;stroke-opacity:1"
         id="path5426"
         inkscape:connector-curvature="0" /><path
         d="m 334.551,355.848 -4.469,4.57 -1.723,-6.16 6.192,1.59"
         style="fill:#000000;fill-opacity:1;fill-rule:evenodd;stroke:#000000;stroke-width:1.54096997;stroke-linecap:butt;stroke-linejoin:miter;stroke-miterlimit:4;stroke-dasharray:none;stroke-opacity:1"
         id="path5428"
         inkscape:connector-curvature="0" /><path
         d="m 313.445,213.219 -51.3,-18.914"
         style="fill:none;stroke:#000000;stroke-width:1.60000002;stroke-linecap:butt;stroke-linejoin:miter;stroke-miterlimit:4;stroke-dasharray:none;stroke-opacity:1"
         id="path5430"
         inkscape:connector-curvature="0" /><path
         d="m 258.68,193.027 6.3,-1.086 -2.21,6.004 -4.09,-4.918"
         style="fill:#000000;fill-opacity:1;fill-rule:evenodd;stroke:#000000;stroke-width:1.50120199;stroke-linecap:butt;stroke-linejoin:miter;stroke-miterlimit:4;stroke-dasharray:none;stroke-opacity:1"
         id="path5432"
         inkscape:connector-curvature="0" /><path
         d="M 195.816,298.781 100.625,265.633"
         style="fill:none;stroke:#000000;stroke-width:1.60000002;stroke-linecap:butt;stroke-linejoin:miter;stroke-miterlimit:4;stroke-dasharray:none;stroke-opacity:1"
         id="path5434"
         inkscape:connector-curvature="0" /><path
         d="m 97.137,264.422 6.281,-1.203 -2.106,6.043 -4.175,-4.84"
         style="fill:#000000;fill-opacity:1;fill-rule:evenodd;stroke:#000000;stroke-width:1.51101196;stroke-linecap:butt;stroke-linejoin:miter;stroke-miterlimit:4;stroke-dasharray:none;stroke-opacity:1"
         id="path5436"
         inkscape:connector-curvature="0" /><path
         d="m 209.203,300.047 -6.265,-27.449"
         style="fill:none;stroke:#000000;stroke-width:1.60000002;stroke-linecap:butt;stroke-linejoin:miter;stroke-miterlimit:4;stroke-dasharray:none;stroke-opacity:1"
         id="path5438"
         inkscape:connector-curvature="0" /><path
         d="m 202.117,268.996 4.352,4.688 -6.239,1.421 1.887,-6.109"
         style="fill:#000000;fill-opacity:1;fill-rule:evenodd;stroke:#000000;stroke-width:0.35606399;stroke-linecap:butt;stroke-linejoin:miter;stroke-miterlimit:4;stroke-dasharray:none;stroke-opacity:1"
         id="path5440"
         inkscape:connector-curvature="0" /><path
         d="m 330.805,298.215 -6.266,-24.16"
         style="fill:none;stroke:#000000;stroke-width:1.60000002;stroke-linecap:butt;stroke-linejoin:miter;stroke-miterlimit:4;stroke-dasharray:none;stroke-opacity:1"
         id="path5442"
         inkscape:connector-curvature="0" /><path
         d="m 323.613,270.48 4.485,4.555 -6.196,1.61 1.711,-6.165"
         style="fill:#000000;fill-opacity:1;fill-rule:evenodd;stroke:#000000;stroke-width:0.401683;stroke-linecap:butt;stroke-linejoin:miter;stroke-miterlimit:4;stroke-dasharray:none;stroke-opacity:1"
         id="path5444"
         inkscape:connector-curvature="0" /><path
         d="m 81.719,290.215 6.269,-24.16"
         style="fill:none;stroke:#000000;stroke-width:1.60000002;stroke-linecap:butt;stroke-linejoin:miter;stroke-miterlimit:4;stroke-dasharray:none;stroke-opacity:1"
         id="path5446"
         inkscape:connector-curvature="0" /><path
         d="m 88.914,262.48 1.707,6.165 -6.195,-1.61 4.488,-4.555"
         style="fill:#000000;fill-opacity:1;fill-rule:evenodd;stroke:#000000;stroke-width:0.401683;stroke-linecap:butt;stroke-linejoin:miter;stroke-miterlimit:4;stroke-dasharray:none;stroke-opacity:1"
         id="path5448"
         inkscape:connector-curvature="0" /><path
         d="m 81.719,135.328 6.269,-7.766"
         style="fill:none;stroke:#000000;stroke-width:1.60000002;stroke-linecap:butt;stroke-linejoin:miter;stroke-miterlimit:4;stroke-dasharray:none;stroke-opacity:1"
         id="path5450"
         inkscape:connector-curvature="0" /><path
         d="m 90.305,124.688 -0.985,6.32 -4.98,-4.02 5.965,-2.3"
         style="fill:#000000;fill-opacity:1;fill-rule:evenodd;stroke:#000000;stroke-width:1.00480402;stroke-linecap:butt;stroke-linejoin:miter;stroke-miterlimit:4;stroke-dasharray:none;stroke-opacity:1"
         id="path5452"
         inkscape:connector-curvature="0" /><path
         d="m 81.719,72.926 6.269,-7.762"
         style="fill:none;stroke:#000000;stroke-width:1.60000002;stroke-linecap:butt;stroke-linejoin:miter;stroke-miterlimit:4;stroke-dasharray:none;stroke-opacity:1"
         id="path5454"
         inkscape:connector-curvature="0" /><path
         d="m 90.305,62.289 -0.985,6.316 -4.98,-4.019 5.965,-2.297"
         style="fill:#000000;fill-opacity:1;fill-rule:evenodd;stroke:#000000;stroke-width:1.00480402;stroke-linecap:butt;stroke-linejoin:miter;stroke-miterlimit:4;stroke-dasharray:none;stroke-opacity:1"
         id="path5456"
         inkscape:connector-curvature="0" /><path
         d="m 96.93,386.855 81.89,-34.503"
         style="fill:none;stroke:#000000;stroke-width:1.60000002;stroke-linecap:butt;stroke-linejoin:miter;stroke-miterlimit:4;stroke-dasharray:none;stroke-opacity:1"
         id="path5458"
         inkscape:connector-curvature="0" /><path
         d="m 182.223,350.918 -3.86,5.098 -2.484,-5.899 6.344,0.801"
         style="fill:#000000;fill-opacity:1;fill-rule:evenodd;stroke:#000000;stroke-width:1.47447205;stroke-linecap:butt;stroke-linejoin:miter;stroke-miterlimit:4;stroke-dasharray:none;stroke-opacity:1"
         id="path5460"
         inkscape:connector-curvature="0" /><path
         d="M 115.965,139.352 229.957,65.367"
         style="fill:none;stroke:#000000;stroke-width:1.60000002;stroke-linecap:butt;stroke-linejoin:miter;stroke-miterlimit:4;stroke-dasharray:none;stroke-opacity:1"
         id="path5462"
         inkscape:connector-curvature="0" /><path
         d="m 233.055,63.355 -2.903,5.7 -3.484,-5.367 6.387,-0.333"
         style="fill:#000000;fill-opacity:1;fill-rule:evenodd;stroke:#000000;stroke-width:1.34210205;stroke-linecap:butt;stroke-linejoin:miter;stroke-miterlimit:4;stroke-dasharray:none;stroke-opacity:1"
         id="path5464"
         inkscape:connector-curvature="0" /><path
         d="M 323.109,79.285 262.566,64.488"
         style="fill:none;stroke:#000000;stroke-width:1.60000002;stroke-linecap:butt;stroke-linejoin:miter;stroke-miterlimit:4;stroke-dasharray:none;stroke-opacity:1"
         id="path5466"
         inkscape:connector-curvature="0" /><path
         d="m 258.98,63.613 6.137,-1.797 -1.519,6.219 -4.618,-4.422"
         style="fill:#000000;fill-opacity:1;fill-rule:evenodd;stroke:#000000;stroke-width:1.55426204;stroke-linecap:butt;stroke-linejoin:miter;stroke-miterlimit:4;stroke-dasharray:none;stroke-opacity:1"
         id="path5468"
         inkscape:connector-curvature="0" /><text
         transform="matrix(1,0,0,-1,276.199,251.76105)"
         style="font-variant:normal;font-weight:bold;font-size:15.96000004px;font-family:Courier;-inkscape-font-specification:Courier-Bold;writing-mode:lr-tb;fill:#000000;fill-opacity:1;fill-rule:nonzero;stroke:none"
         id="text5470"><tspan
           x="0 9.5760002 19.199881 28.775881 38.399761 47.975761 57.59964 67.319283"
           y="0"
           sodipodi:role="line"
           id="tspan5472">Floating</tspan></text>
<text
         transform="matrix(1,0,0,-1,282.07901,240.40074)"
         style="font-variant:normal;font-weight:normal;font-size:12px;font-family:'DejaVu Sans';-inkscape-font-specification:DejaVuSans;writing-mode:lr-tb;fill:#000000;fill-opacity:1;fill-rule:nonzero;stroke:none"
         id="text5474"><tspan
           x="0 6.5999999 9.9239998 15.864 21.096001 24.455999 27.408001 30.408001 39.048 45 50.952 56.903999 60.335999 67.716003"
           y="0"
           sodipodi:role="line"
           id="tspan5476">Float, Double,</tspan><tspan
           x="0 8.3760004 15.708 27.396 35.004002 38.327999 45.504002"
           y="15"
           sodipodi:role="line"
           id="tspan5478">Complex</tspan></text>
<text
         transform="matrix(1,0,0,-1,66.878899,423.28101)"
         style="font-variant:normal;font-weight:bold;font-size:15.96000004px;font-family:Courier;-inkscape-font-specification:Courier-Bold;writing-mode:lr-tb;fill:#000000;fill-opacity:1;fill-rule:nonzero;stroke:none"
         id="text5480"><tspan
           x="0 9.5760002 19.199881"
           y="0"
           sodipodi:role="line"
           id="tspan5482">Ord</tspan></text>
<text
         transform="matrix(1,0,0,-1,34.31337,408.561)"
         style="font-variant:normal;font-weight:normal;font-size:12px;font-family:'DejaVu Sans';-inkscape-font-specification:DejaVuSans;writing-mode:lr-tb;fill:#000000;fill-opacity:1;fill-rule:nonzero;stroke:none"
         id="text5484"><tspan
           x="0 8.2080002 11.532 14.856 22.427999 29.591999 36.456001 43.043999 50.424 58.032001 62.736 66.540001 71.220001 75.540001 85.584"
           y="0"
           sodipodi:role="line"
           id="tspan5486">All except (-&gt;)</tspan><tspan
           x="13.781256 17.309256 26.753256 30.557257 34.325256 37.853256 47.297256 54.869255 59.597256 64.289253 71.621254"
           y="15"
           sodipodi:role="line"
           id="tspan5488">IO, IOError</tspan></text>
</g></g></svg>